<?xml version="1.0" encoding="utf-8"?>
<!-- Generator: Adobe Illustrator 26.0.1, SVG Export Plug-In . SVG Version: 6.00 Build 0)  -->
<svg version="1.1" id="Layer_1" xmlns="http://www.w3.org/2000/svg" xmlns:xlink="http://www.w3.org/1999/xlink" x="0px" y="0px"
	 viewBox="0 0 1200 200" style="enable-background:new 0 0 1200 200;" xml:space="preserve">
<style type="text/css">
	.st0{fill:#EABC1E;}
	.st1{fill:#231F20;}
</style>
<g>
	<g>
		<g>
			<g>
				<path class="st0" d="M74.22,67.82c-16.47,0-29.86-13.4-29.86-29.86S57.76,8.1,74.22,8.1s29.86,13.4,29.86,29.86
					S90.69,67.82,74.22,67.82z M74.22,9.04c-15.94,0-28.92,12.97-28.92,28.92c0,15.94,12.97,28.92,28.92,28.92
					s28.92-12.97,28.92-28.92C103.14,22.02,90.17,9.04,74.22,9.04z"/>
			</g>
			<g>
				<path class="st0" d="M135.94,67.82c-16.47,0-29.86-13.4-29.86-29.86S119.47,8.1,135.94,8.1s29.86,13.4,29.86,29.86
					S152.4,67.82,135.94,67.82z M135.94,9.04c-15.94,0-28.92,12.97-28.92,28.92c0,15.94,12.97,28.92,28.92,28.92
					c15.94,0,28.92-12.97,28.92-28.92C164.85,22.02,151.88,9.04,135.94,9.04z"/>
			</g>
			<g>
				<circle class="st0" cx="197.65" cy="37.96" r="29.39"/>
			</g>
			<g>
				<path class="st0" d="M74.22,129.53c-16.47,0-29.86-13.4-29.86-29.86s13.4-29.86,29.86-29.86s29.86,13.4,29.86,29.86
					S90.69,129.53,74.22,129.53z M74.22,70.75c-15.94,0-28.92,12.97-28.92,28.92c0,15.94,12.97,28.92,28.92,28.92
					s28.92-12.97,28.92-28.92C103.14,83.72,90.17,70.75,74.22,70.75z"/>
			</g>
			<g>
				<path class="st0" d="M135.94,129.53c-16.47,0-29.86-13.4-29.86-29.86s13.4-29.86,29.86-29.86s29.86,13.4,29.86,29.86
					S152.4,129.53,135.94,129.53z M135.94,70.75c-15.94,0-28.92,12.97-28.92,28.92c0,15.94,12.97,28.92,28.92,28.92
					c15.94,0,28.92-12.97,28.92-28.92C164.85,83.72,151.88,70.75,135.94,70.75z"/>
			</g>
			<g>
				<circle class="st0" cx="197.65" cy="99.67" r="29.39"/>
			</g>
			<g>
				<circle class="st0" cx="74.22" cy="161.38" r="29.39"/>
			</g>
			<g>
				<circle class="st0" cx="135.94" cy="161.38" r="29.39"/>
			</g>
			<g>
				<circle class="st0" cx="197.65" cy="161.38" r="29.39"/>
			</g>
		</g>
	</g>
	<g>
		<path class="st1" d="M252.64,71.48c3.35-4.57,7.46-8.28,12.33-11.13c4.87-2.85,10.16-4.28,15.87-4.28
			c6.77,0,12.84,1.66,18.21,4.97c5.37,3.31,9.61,7.63,12.73,12.96c1.83-2.66,3.96-5.1,6.39-7.31c2.44-2.21,5.12-4.09,8.05-5.65
			c2.93-1.56,5.99-2.78,9.19-3.65c3.2-0.87,6.47-1.31,9.82-1.31c4.95,0,9.57,0.91,13.87,2.74c4.3,1.83,8.03,4.34,11.19,7.54
			c3.16,3.2,5.69,6.95,7.59,11.24c1.9,4.3,2.93,8.89,3.08,13.76c0.08,0.23,0.11,0.53,0.11,0.91v65.99c0,1.52-0.51,2.82-1.54,3.88
			c-1.03,1.07-2.3,1.6-3.82,1.6c-1.45,0-2.72-0.53-3.82-1.6c-1.1-1.06-1.66-2.36-1.66-3.88v-66.1c0-3.58-0.72-6.89-2.17-9.93
			c-1.45-3.04-3.37-5.69-5.77-7.93c-2.4-2.24-5.16-4-8.28-5.25c-3.12-1.26-6.39-1.88-9.82-1.88c-3.58,0-7.02,0.7-10.33,2.11
			c-3.31,1.41-6.22,3.29-8.73,5.65c-2.51,2.36-4.53,5.1-6.05,8.22c-1.52,3.12-2.28,6.39-2.28,9.82v65.3c0,1.52-0.51,2.82-1.54,3.88
			c-1.03,1.07-2.3,1.6-3.82,1.6c-1.52,0-2.82-0.53-3.88-1.6c-1.07-1.06-1.6-2.36-1.6-3.88V92.37c0-3.58-0.7-6.91-2.11-9.99
			c-1.41-3.08-3.29-5.75-5.65-7.99c-2.36-2.24-5.1-4.01-8.22-5.31c-3.12-1.29-6.39-1.94-9.82-1.94c-3.65,0-7.14,0.68-10.45,2.05
			c-3.31,1.37-6.22,3.23-8.73,5.59c-2.51,2.36-4.53,5.1-6.05,8.22c-1.52,3.12-2.28,6.39-2.28,9.82v65.3c0,1.52-0.51,2.84-1.54,3.94
			c-1.03,1.1-2.3,1.66-3.82,1.66c-1.52,0-2.82-0.55-3.88-1.66c-1.07-1.1-1.6-2.42-1.6-3.94V61.66c0-1.52,0.53-2.81,1.6-3.88
			c1.06-1.07,2.36-1.6,3.88-1.6c1.52,0,2.8,0.53,3.82,1.6c1.03,1.07,1.54,2.36,1.54,3.88V71.48z"/>
		<path class="st1" d="M395.91,110.81c0-7.53,1.43-14.61,4.28-21.27s6.75-12.43,11.7-17.33c4.95-4.9,10.73-8.78,17.35-11.63
			c6.62-2.85,13.66-4.28,21.12-4.28c7.46,0,14.48,1.41,21.06,4.22c6.58,2.81,12.33,6.65,17.24,11.52
			c4.91,4.87,8.79,10.57,11.64,17.11c2.85,6.54,4.32,13.57,4.4,21.1v47.78c0,1.6-0.53,2.95-1.6,4.05c-1.07,1.1-2.4,1.65-4,1.65
			c-1.52,0-2.78-0.55-3.77-1.66c-0.99-1.1-1.48-2.45-1.48-4.05l-0.11-15.41c-2.51,3.35-5.35,6.39-8.51,9.13
			c-3.16,2.74-6.58,5.1-10.27,7.08c-3.69,1.98-7.61,3.52-11.76,4.62c-4.15,1.1-8.43,1.66-12.84,1.66c-7.46,0-14.5-1.43-21.12-4.28
			c-6.62-2.85-12.41-6.73-17.35-11.63c-4.95-4.9-8.85-10.66-11.7-17.28C397.34,125.29,395.91,118.26,395.91,110.81z M406.75,110.75
			c0,5.94,1.12,11.53,3.37,16.78s5.34,9.86,9.26,13.81c3.92,3.96,8.54,7.1,13.83,9.42c5.3,2.32,10.99,3.48,17.09,3.48
			c6.17,0,11.91-1.16,17.2-3.48c5.3-2.32,9.89-5.46,13.77-9.42c3.89-3.96,6.95-8.56,9.2-13.81c2.25-5.25,3.37-10.85,3.37-16.78
			c0-6.01-1.13-11.68-3.37-17.01c-2.25-5.33-5.34-9.95-9.26-13.87c-3.92-3.92-8.54-7.02-13.83-9.3c-5.3-2.28-10.99-3.42-17.09-3.42
			c-6.1,0-11.79,1.14-17.09,3.42c-5.3,2.28-9.91,5.39-13.83,9.3c-3.92,3.92-7.01,8.54-9.26,13.87
			C407.88,99.07,406.75,104.74,406.75,110.75z"/>
		<path class="st1" d="M538.38,79.13c2.21-3.42,4.72-6.52,7.53-9.3c2.81-2.78,5.88-5.17,9.19-7.19c3.31-2.02,6.79-3.58,10.45-4.68
			c3.65-1.1,7.42-1.65,11.3-1.65c6.47,0,12.31,1.18,17.52,3.54c5.21,2.36,9.66,5.77,13.36,10.22c3.69,4.45,6.54,9.89,8.56,16.33
			c2.02,6.43,3.06,13.68,3.14,21.75v50.23c0,1.52-0.51,2.82-1.54,3.88c-1.03,1.07-2.38,1.6-4.05,1.6c-1.52,0-2.78-0.53-3.77-1.6
			c-0.99-1.07-1.48-2.36-1.48-3.88v-49.66c0-13.55-2.91-23.86-8.73-30.94c-5.82-7.08-13.87-10.62-24.15-10.62
			c-5.18,0-10.03,1.07-14.56,3.2c-4.53,2.13-8.47,5.04-11.82,8.73c-3.35,3.69-6.01,8.03-7.99,13.01
			c-1.98,4.99-2.97,10.37-2.97,16.15v49.89c0,1.52-0.51,2.84-1.54,3.94c-1.03,1.1-2.3,1.66-3.82,1.66c-1.52,0-2.82-0.55-3.88-1.66
			c-1.07-1.1-1.6-2.42-1.6-3.94V61.66c0-1.52,0.53-2.81,1.6-3.88c1.06-1.07,2.36-1.6,3.88-1.6c1.52,0,2.8,0.53,3.82,1.6
			c1.03,1.07,1.54,2.36,1.54,3.88V79.13z"/>
		<path class="st1" d="M679.48,99.1l36.99,56.17c0.91,1.3,1.22,2.66,0.91,4.11c-0.3,1.45-1.1,2.59-2.4,3.42
			c-1.22,0.84-2.55,1.12-4,0.86c-1.45-0.27-2.59-1.05-3.42-2.34l-36.07-54.57l-19.52,18.61v32.88c0,1.52-0.51,2.82-1.54,3.88
			c-1.03,1.07-2.3,1.6-3.82,1.6c-1.52,0-2.82-0.53-3.88-1.6c-1.07-1.06-1.6-2.36-1.6-3.88V23.07c0-1.52,0.55-2.81,1.66-3.88
			c1.1-1.06,2.38-1.6,3.82-1.6c1.52,0,2.8,0.53,3.82,1.6c1.03,1.07,1.54,2.36,1.54,3.88v88.02l54.91-52.86
			c1.14-1.06,2.41-1.56,3.82-1.48c1.41,0.08,2.61,0.65,3.6,1.71c0.15,0.15,0.23,0.31,0.23,0.46c0.91,1.07,1.35,2.28,1.31,3.65
			c-0.04,1.37-0.59,2.55-1.66,3.54L679.48,99.1z"/>
		<path class="st1" d="M729.43,89.46c2.85-6.66,6.75-12.44,11.7-17.35c4.95-4.91,10.73-8.79,17.35-11.64s13.66-4.28,21.12-4.28
			c7.53,0,14.59,1.43,21.18,4.28c6.58,2.85,12.33,6.74,17.24,11.64c4.91,4.91,8.79,10.69,11.64,17.35
			c2.85,6.66,4.28,13.76,4.28,21.29c0,7.46-1.43,14.5-4.28,21.12s-6.74,12.39-11.64,17.3c-4.91,4.91-10.66,8.79-17.24,11.64
			c-6.58,2.85-13.64,4.28-21.18,4.28c-7.46,0-14.5-1.43-21.12-4.28c-6.62-2.85-12.41-6.74-17.35-11.64
			c-4.95-4.91-8.85-10.67-11.7-17.3c-2.85-6.62-4.28-13.66-4.28-21.12C725.15,103.21,726.57,96.12,729.43,89.46z M739.47,127.53
			c2.24,5.25,5.33,9.86,9.25,13.81c3.92,3.96,8.52,7.1,13.81,9.42c5.29,2.32,10.98,3.48,17.07,3.48c6.16,0,11.89-1.16,17.18-3.48
			c5.29-2.32,9.87-5.46,13.76-9.42c3.88-3.96,6.94-8.56,9.19-13.81c2.24-5.25,3.37-10.85,3.37-16.78c0-6.01-1.12-11.68-3.37-17.01
			c-2.25-5.33-5.33-9.95-9.25-13.87c-3.92-3.92-8.52-7.02-13.81-9.3c-5.29-2.28-10.98-3.42-17.07-3.42
			c-6.09,0-11.78,1.14-17.07,3.42c-5.29,2.28-9.89,5.39-13.81,9.3c-3.92,3.92-7,8.54-9.25,13.87c-2.25,5.33-3.37,11-3.37,17.01
			C736.11,116.69,737.23,122.28,739.47,127.53z"/>
		<path class="st1" d="M866.47,108.69c-3.81-1.6-7.19-3.54-10.16-5.82c-2.97-2.28-5.35-4.97-7.14-8.05
			c-1.79-3.08-2.68-6.75-2.68-11.02c0-4.64,1.03-8.69,3.08-12.16c2.05-3.46,4.72-6.35,7.99-8.68c3.27-2.32,6.96-4.05,11.07-5.19
			c4.11-1.14,8.26-1.71,12.44-1.71c3.35,0,6.58,0.33,9.7,0.97c3.12,0.65,6.05,1.64,8.79,2.97c2.74,1.33,5.21,2.99,7.42,4.97
			c2.21,1.98,4.03,4.3,5.48,6.96c1.14,2.28,0.95,4.19-0.57,5.71c-0.76,0.68-1.66,1.14-2.68,1.37c-1.03,0.23-2,0.08-2.91-0.46
			c-3.27-4.34-6.87-7.55-10.79-9.65c-3.92-2.09-8.5-3.14-13.76-3.14c-2.82,0-5.67,0.3-8.56,0.91c-2.89,0.61-5.5,1.6-7.82,2.97
			c-2.32,1.37-4.22,3.2-5.71,5.48c-1.48,2.28-2.23,5.1-2.23,8.45c0,2.97,0.65,5.5,1.94,7.59c1.29,2.09,3.03,3.92,5.19,5.48
			c2.17,1.56,4.66,2.89,7.48,4c2.81,1.1,5.78,2.11,8.9,3.03c5.02,1.52,9.8,3.1,14.33,4.74c4.53,1.64,8.49,3.64,11.87,5.99
			c3.39,2.36,6.09,5.16,8.11,8.39c2.02,3.24,3.03,7.17,3.03,11.82c0,4.34-0.95,8.35-2.85,12.04c-1.9,3.69-4.51,6.91-7.82,9.65
			c-3.31,2.74-7.17,4.87-11.59,6.39c-4.41,1.52-9.13,2.28-14.16,2.28c-4.03,0-7.92-0.38-11.64-1.14c-3.73-0.76-7.19-1.92-10.39-3.48
			c-3.2-1.56-6.07-3.5-8.62-5.82c-2.55-2.32-4.59-5.04-6.11-8.16c-0.91-1.6-1.16-3.04-0.74-4.34c0.42-1.29,1.16-2.24,2.23-2.85
			c1.06-0.61,2.3-0.78,3.71-0.51c1.41,0.27,2.68,1.12,3.82,2.57c2.81,4.87,6.51,8.43,11.07,10.67c4.57,2.25,10.12,3.37,16.67,3.37
			c3.27,0,6.47-0.48,9.59-1.43c3.12-0.95,5.9-2.32,8.33-4.11c2.43-1.79,4.38-3.92,5.82-6.39c1.45-2.47,2.17-5.23,2.17-8.28
			c0-3.2-0.78-5.94-2.34-8.22c-1.56-2.28-3.69-4.26-6.39-5.94c-2.7-1.67-5.84-3.14-9.42-4.39c-3.58-1.26-7.38-2.45-11.42-3.6
			C874.2,111.7,870.28,110.29,866.47,108.69z"/>
		<path class="st1" d="M973.44,99.1l36.99,56.17c0.91,1.3,1.22,2.66,0.91,4.11c-0.3,1.45-1.1,2.59-2.4,3.42
			c-1.22,0.84-2.55,1.12-4,0.86c-1.45-0.27-2.59-1.05-3.42-2.34l-36.07-54.57l-19.52,18.61v32.88c0,1.52-0.51,2.82-1.54,3.88
			c-1.03,1.07-2.3,1.6-3.82,1.6c-1.52,0-2.82-0.53-3.88-1.6c-1.07-1.06-1.6-2.36-1.6-3.88V23.07c0-1.52,0.55-2.81,1.66-3.88
			c1.1-1.06,2.38-1.6,3.82-1.6c1.52,0,2.8,0.53,3.82,1.6c1.03,1.07,1.54,2.36,1.54,3.88v88.02l54.91-52.86
			c1.14-1.06,2.41-1.56,3.82-1.48c1.41,0.08,2.61,0.65,3.6,1.71c0.15,0.15,0.23,0.31,0.23,0.46c0.91,1.07,1.35,2.28,1.31,3.65
			c-0.04,1.37-0.59,2.55-1.66,3.54L973.44,99.1z"/>
		<path class="st1" d="M1030.58,26.5c1.33-1.37,2.99-2.05,4.97-2.05c2.05,0,3.77,0.68,5.14,2.05c1.37,1.37,2.05,3.08,2.05,5.14
			c0,1.9-0.68,3.54-2.05,4.91c-1.37,1.37-3.08,2.05-5.14,2.05c-1.98,0-3.64-0.68-4.97-2.05c-1.33-1.37-2-3.01-2-4.91
			C1028.58,29.58,1029.24,27.87,1030.58,26.5z M1041.02,158.13c0,1.52-0.51,2.84-1.54,3.94c-1.03,1.1-2.3,1.66-3.82,1.66
			c-1.52,0-2.82-0.55-3.88-1.66c-1.07-1.1-1.6-2.42-1.6-3.94V61.66c0-1.52,0.53-2.81,1.6-3.88c1.06-1.07,2.36-1.6,3.88-1.6
			c1.52,0,2.8,0.53,3.82,1.6c1.03,1.07,1.54,2.36,1.54,3.88V158.13z"/>
		<path class="st1" d="M1074.58,79.13c2.21-3.42,4.72-6.52,7.53-9.3c2.81-2.78,5.88-5.17,9.19-7.19c3.31-2.02,6.79-3.58,10.45-4.68
			c3.65-1.1,7.42-1.65,11.3-1.65c6.47,0,12.31,1.18,17.52,3.54c5.21,2.36,9.67,5.77,13.36,10.22c3.69,4.45,6.55,9.89,8.56,16.33
			c2.02,6.43,3.06,13.68,3.14,21.75v50.23c0,1.52-0.51,2.82-1.54,3.88c-1.03,1.07-2.38,1.6-4.05,1.6c-1.52,0-2.78-0.53-3.77-1.6
			c-0.99-1.07-1.48-2.36-1.48-3.88v-49.66c0-13.55-2.91-23.86-8.73-30.94c-5.82-7.08-13.87-10.62-24.14-10.62
			c-5.18,0-10.03,1.07-14.55,3.2c-4.53,2.13-8.47,5.04-11.82,8.73c-3.35,3.69-6.01,8.03-7.99,13.01
			c-1.98,4.99-2.97,10.37-2.97,16.15v49.89c0,1.52-0.51,2.84-1.54,3.94c-1.03,1.1-2.3,1.66-3.82,1.66c-1.52,0-2.82-0.55-3.88-1.66
			c-1.07-1.1-1.6-2.42-1.6-3.94V61.66c0-1.52,0.53-2.81,1.6-3.88c1.06-1.07,2.36-1.6,3.88-1.6c1.52,0,2.8,0.53,3.82,1.6
			c1.03,1.07,1.54,2.36,1.54,3.88V79.13z"/>
	</g>
</g>
</svg>
