<svg width="33" height="36" viewBox="0 0 33 36" fill="none" xmlns="http://www.w3.org/2000/svg">
<path d="M22.2199 15.5385V8.15385C22.2199 4.75517 19.4648 2 16.0661 2C12.6674 2 9.91224 4.75517 9.91224 8.15385L9.91224 15.5385M28.5477 12.2679L30.6203 31.9602C30.7352 33.0515 29.8819 34 28.784 34H3.34814C2.82446 34.0006 2.32519 33.7787 1.97464 33.3897C1.62409 33.0006 1.45526 32.481 1.51019 31.9602L3.58445 12.2679C3.68354 11.3283 4.47599 10.6152 5.42076 10.6154H26.7114C27.6567 10.6154 28.4493 11.3292 28.5477 12.2679ZM10.5276 15.5385C10.5276 15.8783 10.2521 16.1538 9.91224 16.1538C9.57237 16.1538 9.29686 15.8783 9.29686 15.5385C9.29686 15.1986 9.57237 14.9231 9.91224 14.9231C10.2521 14.9231 10.5276 15.1986 10.5276 15.5385ZM22.8353 15.5385C22.8353 15.8783 22.5598 16.1538 22.2199 16.1538C21.8801 16.1538 21.6046 15.8783 21.6046 15.5385C21.6046 15.1986 21.8801 14.9231 22.2199 14.9231C22.5598 14.9231 22.8353 15.1986 22.8353 15.5385Z" stroke="black" stroke-width="3" stroke-linecap="round" stroke-linejoin="round"/>
</svg>
